<svg xmlns="http://www.w3.org/2000/svg" width="20" height="20" viewBox="0 0 20 20">
    <g fill="none" fill-rule="evenodd">
        <path d="M0 0h20v20H0z"/>
        <path fill="#2E2E2E" d="M13.5 10a.5.5 0 1 1 0 1 .5.5 0 0 1 0-1m0-.8a1.301 1.301 0 0 0 0 2.6 1.301 1.301 0 0 0 0-2.6m-7 .8a.5.5 0 1 1 0 1 .5.5 0 0 1 0-1M14 5h4v15H2V5h4V4a4 4 0 0 1 8 0v1zM7.4 4v1h5.2V4c0-1.433-1.167-2.6-2.6-2.6A2.602 2.602 0 0 0 7.4 4zm-.9 5.2a1.302 1.302 0 0 1 0 2.6 1.302 1.302 0 0 1 0-2.6zm10.1 9.4V6.4H14V8h-1.4V6.4H7.4V8H6V6.4H3.4v12.2h13.2z"/>
    </g>
</svg>
