<?xml version="1.0" encoding="UTF-8"?>
<svg width="72px" height="72px" viewBox="0 0 72 72" version="1.1" xmlns="http://www.w3.org/2000/svg" xmlns:xlink="http://www.w3.org/1999/xlink">
    <!-- Generator: Sketch 48.2 (47327) - http://www.bohemiancoding.com/sketch -->
    <title>Combined Shape</title>
    <desc>Created with Sketch.</desc>
    <defs></defs>
    <g id="1440-5-1-常用超商-empty" stroke="none" stroke-width="1" fill="none" fill-rule="evenodd" transform="translate(-684.000000, -159.000000)">
        <g id="Group-7" transform="translate(450.000000, 40.000000)" fill="#2E2E2E" stroke="#2E2E2E">
            <path d="M298.976818,142.800909 C297.955455,144.070455 296.644545,145.088636 295.110909,145.709091 C294.006818,146.154545 292.807273,146.412273 291.547273,146.412273 C290.319091,146.412273 289.135455,146.148182 288.034545,145.709091 C286.488182,145.091818 285.113636,144.102273 284.07,142.800909 C283.452727,142.030909 282.946818,141.165455 282.587273,140.214091 C282.304091,139.46 281.578636,138.960455 280.773636,138.960455 C279.965455,138.960455 279.243182,139.46 278.956818,140.214091 C278.600455,141.165455 278.091364,142.030909 277.477273,142.800909 C276.433636,144.102273 275.055909,145.091818 273.512727,145.709091 C272.408636,146.148182 271.225,146.412273 270,146.412273 C268.771818,146.412273 267.588182,146.148182 266.484091,145.709091 C264.940909,145.091818 263.563182,144.102273 262.519545,142.800909 C261.905455,142.030909 261.396364,141.165455 261.04,140.214091 C260.753636,139.46 260.031364,138.960455 259.223182,138.960455 C258.418182,138.960455 257.695909,139.46 257.409545,140.214091 C257.053182,141.165455 256.544091,142.030909 255.926818,142.800909 C254.883182,144.102273 253.508636,145.091818 251.965455,145.709091 C250.861364,146.148182 249.677727,146.412273 248.449545,146.412273 C243.170909,146.412273 238.878636,142.116818 238.878636,136.838182 C238.878636,134.871818 242.808182,128.75 246.651818,123.878636 L293.345,123.878636 C297.188636,128.75 301.121364,134.871818 301.121364,136.838182 C301.121364,139.103636 300.297273,141.159091 298.976818,142.800909 L298.976818,142.800909 Z M298.595,182.255455 C298.595,184.396818 296.854545,186.137273 294.713182,186.137273 L245.283636,186.137273 C243.142273,186.137273 241.401818,184.396818 241.401818,182.255455 L241.401818,148.257727 C243.454091,149.530455 245.859545,150.290909 248.449545,150.290909 C252.366364,150.290909 256.012727,148.547273 258.526364,145.709091 C258.765,145.438636 259.006818,145.171364 259.223182,144.885 C259.442727,145.171364 259.684545,145.438636 259.923182,145.709091 C262.433636,148.547273 266.083182,150.290909 270,150.290909 C273.913636,150.290909 277.563182,148.547273 280.076818,145.709091 C280.315455,145.438636 280.557273,145.171364 280.773636,144.885 C280.99,145.171364 281.231818,145.438636 281.470455,145.709091 C283.984091,148.547273 287.633636,150.290909 291.547273,150.290909 C294.137273,150.290909 296.542727,149.530455 298.595,148.257727 L298.595,182.255455 Z M300.271818,126.783636 C304.51,132.997727 305,135.498636 305,136.838182 C305,139.720909 304.016818,142.339545 302.457727,144.525455 L302.457727,145.222273 L302.457727,182.255455 C302.457727,186.525455 298.983182,190 294.713182,190 L245.283636,190 C241.013636,190 237.539091,186.525455 237.539091,182.255455 L237.539091,145.222273 L237.539091,144.525455 C235.98,142.339545 235,139.720909 235,136.838182 C235,135.498636 235.49,132.997727 239.725,126.783636 C241.942727,123.535 244.119091,120.833636 244.211364,120.722273 C244.580455,120.264091 245.134091,120 245.719545,120 L294.277273,120 C294.862727,120 295.419545,120.264091 295.785455,120.722273 C295.877727,120.833636 298.057273,123.535 300.271818,126.783636 Z M281.587864,162.133 C280.502864,162.133 279.618318,161.248455 279.618318,160.160273 C279.618318,159.075273 280.502864,158.190727 281.587864,158.190727 C282.676045,158.190727 283.560591,159.075273 283.560591,160.160273 C283.560591,161.248455 282.676045,162.133 281.587864,162.133 Z M258.408318,162.133 C257.320136,162.133 256.435591,161.248455 256.435591,160.160273 C256.435591,159.075273 257.320136,158.190727 258.408318,158.190727 C259.4965,158.190727 260.381045,159.075273 260.381045,160.160273 C260.381045,161.248455 259.4965,162.133 258.408318,162.133 Z M281.587864,155.050273 C278.768773,155.050273 276.474682,157.341182 276.474682,160.160273 C276.474682,162.292091 277.785591,164.118455 279.643773,164.885273 L279.643773,165.928909 C279.643773,171.236182 275.326045,175.553909 270.015591,175.553909 C264.708318,175.553909 260.390591,171.236182 260.390591,165.928909 L260.390591,164.875727 C262.229682,164.099364 263.5215,162.279364 263.5215,160.160273 C263.5215,157.341182 261.230591,155.050273 258.408318,155.050273 C255.589227,155.050273 253.295136,157.341182 253.295136,160.160273 C253.295136,162.304818 254.625136,164.137545 256.502409,164.898 L256.502409,165.928909 C256.502409,173.380727 262.563773,179.445273 270.015591,179.445273 C277.470591,179.445273 283.535136,173.380727 283.535136,165.928909 L283.535136,164.885273 C285.393318,164.118455 286.704227,162.292091 286.704227,160.160273 C286.704227,157.341182 284.406955,155.050273 281.587864,155.050273 Z" id="Combined-Shape"></path>
        </g>
    </g>
</svg>