<svg xmlns="http://www.w3.org/2000/svg" width="241" height="150" viewBox="0 0 241 150">
    <g fill="#2E2E2E" fill-rule="evenodd">
        <path d="M7.6 20v-5H6v5H1v1.6h5V27h1.6v-5.4H13V20H7.6zM191 15l8.66 5-5 8.66-8.66-5 5-8.66zm-2.814 8.075l5.889 3.4 3.4-5.89-5.89-3.4-3.4 5.89h.001zM5 61l8.66 5-5 8.66-8.66-5L5 61zm-2.814 8.075l5.889 3.4 3.4-5.89-5.89-3.4-3.4 5.89h.001zm36.057 17.036l-3.677-3.677-1.132 1.132 3.677 3.677-3.677 3.677 1.132 1.131 3.677-3.677 3.677 3.677 1.131-1.131-3.677-3.677 3.677-3.677-1.131-1.132-3.677 3.677zm197-52l-3.677-3.677-1.132 1.132 3.677 3.677-3.677 3.677 1.132 1.131 3.677-3.677 3.677 3.677 1.131-1.131-3.677-3.677 3.677-3.677-1.131-1.132-3.677 3.677zM206 70a6 6 0 1 1 0-12 6 6 0 0 1 0 12zm0-1.6a4.4 4.4 0 0 0 .004-8.8H206a4.4 4.4 0 0 0 0 8.8zM20 129a6 6 0 1 1 0-12 6 6 0 0 1 0 12zm0-1.6a4.4 4.4 0 1 0 0-8.8 4.4 4.4 0 0 0 0 8.8zM49 39a6 6 0 1 1 0-12 6 6 0 0 1 0 12zm0-1.6a4.4 4.4 0 0 0 .004-8.8H49a4.4 4.4 0 0 0 0 8.8zM98 12a3 3 0 1 0 0-6 3 3 0 0 0 0 6zm-10 0a3 3 0 1 0 0-6 3 3 0 0 0 0 6zm-10 0a3 3 0 1 0 0-6 3 3 0 0 0 0 6zm-5 6v128h73v4h11.501-84.504A3.996 3.996 0 0 1 69 146.007V3.993A3.991 3.991 0 0 1 72.989 0h96.014A3.996 3.996 0 0 1 173 3.993V98h-4V18H73z"/>
        <path d="M97 42a8 8 0 1 1 0 16 8 8 0 0 1 0-16M145 42a8 8 0 1 1 0 16 8 8 0 0 1 0-16M142.554 74c-1.01 0-2.01.44-2.69 1.288-5.094 6.34-11.794 9.832-18.864 9.832-7.071 0-13.77-3.492-18.863-9.83a3.45 3.45 0 0 0-5.377 4.32c6.43 8 15.038 12.407 24.24 12.407 9.202 0 17.81-4.408 24.24-12.408A3.45 3.45 0 0 0 142.554 74M164.768 123.728l-3.536 3.536 13.279 13.279 17.775-17.775-3.535-3.536-14.24 14.24-9.743-9.743v-.001zM156 112.008a4.007 4.007 0 0 1 4.004-4.008h33.988a4.007 4.007 0 0 1 4.008 4.004v33.988a4.007 4.007 0 0 1-4.004 4.008H156v-37.992z"/>
    </g>
</svg>
