<svg xmlns="http://www.w3.org/2000/svg" width="22" height="22" viewBox="0 0 22 22">
    <path fill="#231916" fill-rule="evenodd" d="M15.567 10.236a4.546 4.546 0 0 0-4.54-4.54 4.546 4.546 0 0 0-4.542 4.54c0 .882.27 1.76.784 2.542a7.416 7.416 0 0 0-3.37 4.435 9.26 9.26 0 0 1-2.372-6.211c0-5.224 4.25-9.476 9.474-9.476s9.474 4.252 9.474 9.476c0 2.289-.825 4.49-2.325 6.209a7.645 7.645 0 0 0-3.36-4.426 4.517 4.517 0 0 0 .777-2.55m-7.22 3.712a4.515 4.515 0 0 0 2.654.852c.94 0 1.89-.312 2.68-.88a6.003 6.003 0 0 1 3.167 4.544 9.531 9.531 0 0 1-5.83 2.012 9.367 9.367 0 0 1-5.812-1.985c.077-.747.53-3.138 3.142-4.543m2.653-.67a3.018 3.018 0 0 1-3.014-3.015A3.017 3.017 0 0 1 11 7.248a3.017 3.017 0 0 1 3.014 3.014A3.018 3.018 0 0 1 11 13.277M10.998 0C4.934 0 0 4.936 0 11.002c0 3.207 1.406 6.25 3.854 8.346a.499.499 0 0 0 .139.108A10.832 10.832 0 0 0 11.027 22c2.496 0 4.962-.875 6.945-2.463a.665.665 0 0 0 .313-.25C20.645 17.157 22 14.137 22 11.003 22 4.936 17.065 0 10.998 0"/>
</svg>
