<svg xmlns="http://www.w3.org/2000/svg" width="30" height="38" viewBox="0 0 30 38">
    <g fill="none" fill-rule="evenodd">
        <path d="M-5 0h38v38H-5z"/>
        <path fill="#D01120" d="M21.563 19c.517 0 .937.426.937.95s-.42.95-.938.95a.944.944 0 0 1-.937-.95c0-.524.42-.95.938-.95m0-1.52c-1.347.053-2.395 1.203-2.342 2.567.05 1.288 1.07 2.322 2.341 2.373 1.347-.053 2.395-1.203 2.342-2.567-.05-1.288-1.07-2.322-2.341-2.373M8.438 19c.517 0 .937.426.937.95s-.42.95-.938.95a.944.944 0 0 1-.937-.95c0-.524.42-.95.938-.95M22.5 9.5H30V38H0V9.5h7.5V7.6C7.5 3.403 10.858 0 15 0c4.142 0 7.5 3.403 7.5 7.6v1.9zM10.125 7.6v1.9h9.75V7.6c0-2.723-2.188-4.94-4.875-4.94-2.69.002-4.873 2.213-4.875 4.94zm-1.688 9.88c1.272.051 2.292 1.085 2.342 2.373.053 1.364-.995 2.514-2.341 2.567-1.272-.051-2.292-1.085-2.342-2.373-.053-1.364.995-2.514 2.341-2.567zm18.938 17.86V12.16H22.5v3.04h-2.625v-3.04h-9.75v3.04H7.5v-3.04H2.625v23.18h24.75z"/>
    </g>
</svg>
