<svg xmlns="http://www.w3.org/2000/svg" width="30" height="30" viewBox="0 0 30 30">
    <g fill="none" fill-rule="evenodd">
        <path fill="none" d="M0 0h30v30H0z"/>
        <g fill="#ffc429">
            <path d="M10 13a2 2 0 1 0 .001 4.001A2 2 0 0 0 10 13m0 1.2a.801.801 0 0 1 0 1.6.801.801 0 0 1 0-1.6M20 13a2 2 0 1 0 .001 4.001A2 2 0 0 0 20 13m0 1.2a.801.801 0 0 1 0 1.6.801.801 0 0 1 0-1.6M27 25.2h-3.2V22h-1.6v3.2H19v1.6h3.2V30h1.6v-3.2H27z"/>
            <path d="M10.6 6c0-2.426 1.975-4.4 4.4-4.4A4.406 4.406 0 0 1 19.4 6v2h-8.8V6zm-6 22.4V9.6H9V12h1.6V9.6h8.8V12H21V9.6h4.4V21H27V8h-6V6c0-3.3-2.7-6-6-6S9 2.7 9 6v2H3v22h15v-1.6H4.6z"/>
        </g>
    </g>
</svg>
