<svg xmlns="http://www.w3.org/2000/svg" width="80" height="80" viewBox="0 0 80 80">
    <g fill="none" fill-rule="evenodd">
        <path fill="#FFF4E2" d="M0 0h80v80H0z"/>
        <g fill="#F7B500">
            <path d="M36 34.857a1.714 1.714 0 1 0 0 3.429 1.714 1.714 0 0 0 0-3.429m0 .8a.915.915 0 0 1 0 1.829.915.915 0 0 1 0-1.829"/>
            <path d="M33.254 45.143l5.837-4.865 2.602 3.12.614-.511-.78-.936 3.28-2.81 2.279 2.786v3.216H33.254zm-.34 2.514h14.172v-1.714H32.914v1.714zm14.172-15.314v8.32l-2.178-2.662-3.892 3.336-1.822-2.186-6.28 5.233V32.343h14.172zM32 48.57h16V31.43H32V48.57z"/>
        </g>
    </g>
</svg>
