<svg xmlns="http://www.w3.org/2000/svg" width="70" height="70" viewBox="0 0 70 70">
    <g fill="none" fill-rule="evenodd">
        <path fill="#F7B500" d="M0 0h70v70H0z"/>
        <path fill="#FFF" d="M21.846 26.435c-.162 0-.322.005-.48.014a.187.187 0 0 0-.151.094c-.95 1.683-1.74 3.035-2.487 4.255a.181.181 0 0 0 .062.25 4.04 4.04 0 0 1 1.14 1.015c.33.435.542.957.724 1.456a.186.186 0 0 0 .223.115 9.016 9.016 0 0 0 3.18-1.56c.9-.681 1.817-1.988 1.71-3.247-.067-.784-.526-1.42-1.328-1.84-.689-.361-1.586-.552-2.593-.552m-3.894 5.741a.187.187 0 0 0-.136.084 72.02 72.02 0 0 1-.778 1.187.18.18 0 0 0-.017.17.185.185 0 0 0 .132.11 7.876 7.876 0 0 0 1.645.173h.118a.187.187 0 0 0 .155-.088.18.18 0 0 0 .009-.177c-.304-.602-.624-1.062-.976-1.407a.187.187 0 0 0-.152-.052m37.277-4.78c-.303 0-.631.046-.976.135-1.117.289-2.086.982-2.881 2.06-1.25 1.982-.432 5.696 2.73 7.876a.188.188 0 0 0 .202.007c1.428-.838 2.655-2.345 3.282-4.033.488-1.62.49-3.893-.443-5.123-.464-.611-1.108-.921-1.914-.921m-25.071 6.149c-.476.01-.919.187-1.317.523-.386.328-.697.763-.924 1.294a4.27 4.27 0 0 0-.34 1.686c0 .362.077.63.236.817.166.195.394.294.677.294.287 0 .556-.157.798-.467.223-.285.385-.663.484-1.125l.573-2.803a.181.181 0 0 0-.04-.154.187.187 0 0 0-.142-.065h-.005m14.722 0c-.475.01-.918.187-1.316.523-.387.328-.698.763-.925 1.294a4.27 4.27 0 0 0-.34 1.686c0 .362.078.63.237.817.165.195.393.294.677.294.286 0 .555-.157.798-.467.222-.285.385-.663.483-1.125l.573-2.803a.181.181 0 0 0-.04-.154.187.187 0 0 0-.142-.065h-.005m5 .693c-.01 0-.02 0-.032.003a.184.184 0 0 0-.152.167c-.078 1.033-.015 2.43.726 3.215.37.391.866.59 1.476.59.169 0 .348-.015.533-.046.033-.005.065-.012.097-.02l.056-.012a.184.184 0 0 0 .144-.134.181.181 0 0 0-.061-.186 7.925 7.925 0 0 1-.865-.813 10.79 10.79 0 0 1-1.752-2.657.186.186 0 0 0-.17-.107m-13.06-.572c-.442 0-.933.406-1.502 1.239a.178.178 0 0 0-.031.097 87.66 87.66 0 0 0-.016 1.97c0 .462-.005.823-.015 1.073a.182.182 0 0 0 .066.148.188.188 0 0 0 .16.038c.405-.089.783-.308 1.123-.653.33-.336.596-.756.79-1.249a4.215 4.215 0 0 0 .291-1.55c0-.345-.075-.616-.224-.805a.79.79 0 0 0-.643-.308m-3.282 4.813a.186.186 0 0 0-.17.11 22.433 22.433 0 0 0-1.062 2.933c-.26.935-.393 1.735-.393 2.378 0 .354.043.623.132.82.109.245.257.368.44.368.405 0 .669-.581.881-1.944.186-1.193.306-2.699.358-4.477a.183.183 0 0 0-.186-.188m-1.176 7.736c-.496 0-.85-.168-1.084-.513-.246-.363-.371-.882-.371-1.543 0-.97.231-2.12.686-3.42.13-.37.285-.76.473-1.19a.181.181 0 0 0-.027-.189.187.187 0 0 0-.183-.063 1.537 1.537 0 0 1-.315.034c-.299 0-.567-.098-.819-.3a1.916 1.916 0 0 1-.585-.858.186.186 0 0 0-.175-.12.187.187 0 0 0-.158.086c-.399.634-.886 1.018-1.446 1.142-1.108.362-2.133.542-3.064.542-2.036 0-3.589-.856-4.616-2.544-.32-.527-.582-1.202-.86-1.916l-.07-.177a.186.186 0 0 0-.174-.118h-.007a9.514 9.514 0 0 1-3.205-.399.187.187 0 0 0-.208.071c-1.45 2.072-3.377 4.45-5.43 4.45-.134 0-.269-.01-.4-.03-.488-.079-.536-.4-.52-.586.032-.396.397-.837.869-.837.042 0 .084.003.127.01l.002-.01c.066-.005.185-.013.306-.054.635-.216 1.17-.652 1.653-1.092.683-.62 1.33-1.366 2.037-2.349a.18.18 0 0 0-.042-.253.78.78 0 0 1-.273-.847c.032-.097.116-.26.313-.26.088 0 .187.03.297.089.065.035.13.066.197.097l.089.042a.188.188 0 0 0 .238-.064c.177-.269.351-.538.524-.806l.196-.31.14-.224a.18.18 0 0 0 .008-.18.187.187 0 0 0-.154-.1 3.75 3.75 0 0 0-.431 0c-.277 0-.42-.09-.425-.27-.008-.28.32-.73.772-.755a4.59 4.59 0 0 1 .91.053.187.187 0 0 0 .16-.088A141.048 141.048 0 0 0 20.1 25.62a.816.816 0 0 1 .732-.421.93.93 0 0 1 .245.033.187.187 0 0 0 .05.007h.009c.137-.007.276-.01.415-.01 1.573 0 2.961.416 3.91 1.173 1.703 1.359 1.94 3.89.529 5.645-1.109 1.377-2.707 2.34-4.623 2.782a.185.185 0 0 0-.123.093.18.18 0 0 0-.007.154c.388.938.902 2 1.77 2.763.74.652 1.664.983 2.743.983.166 0 .338-.008.512-.023a.185.185 0 0 0 .15-.101.18.18 0 0 0-.01-.18c-.258-.395-.388-.894-.388-1.486 0-.779.185-1.527.552-2.223a4.673 4.673 0 0 1 1.467-1.686c.6-.417 1.243-.629 1.913-.629.189 0 .288.035.317.068.032.035.093.131.152.384a.186.186 0 0 0 .216.139c.205-.039.423-.058.646-.058.573 0 .573.237.573.35 0 .2-.077.702-.23 1.49-.24 1.186-.358 1.995-.358 2.47 0 .195.053.358.159.482a.565.565 0 0 0 .444.203c.247 0 .52-.137.838-.42.207-.186.473-.46.789-.816a.184.184 0 0 0 .02-.029l.216-.362a.179.179 0 0 0 .026-.094c0-1.472-.01-2.514-.03-3.097A.59.59 0 0 1 34 32.66c.215-.15.49-.226.821-.226.166 0 .287.029.349.083.026.023.089.107.1.381 0 .256.005.445.016.572a.184.184 0 0 0 .186.167c.055 0 .109-.024.145-.068.314-.386.624-.666.921-.831.29-.161.603-.243.93-.243.523 0 .939.202 1.271.616.338.422.51.988.51 1.683 0 .516-.086 1.024-.253 1.51a4.939 4.939 0 0 1-.702 1.337.18.18 0 0 0-.026.167c.02.057.066.1.125.117.236.066.43.098.593.098.382 0 .749-.136 1.091-.405.173-.137.373-.323.61-.57a.181.181 0 0 0 .051-.122 4.72 4.72 0 0 1 .55-2.116 4.673 4.673 0 0 1 1.466-1.686c.6-.417 1.244-.629 1.913-.629.189 0 .288.035.318.068.03.035.092.131.15.384a.186.186 0 0 0 .217.139c.205-.039.423-.058.646-.058.573 0 .573.237.573.35 0 .2-.077.702-.229 1.49-.242 1.186-.36 1.995-.36 2.47 0 .195.055.358.16.482a.565.565 0 0 0 .445.203c.246 0 .52-.137.837-.42.287-.257.663-.658 1.148-1.23a.487.487 0 0 1 .124-.103.182.182 0 0 0 .085-.205c-.366-1.33-.356-2.988.028-4.547a8.619 8.619 0 0 1 .843-2.11c.11-.249.23-.469.363-.67a.391.391 0 0 1 .11-.103.183.183 0 0 0 .047-.046c.651-.904 2.04-2.421 4.035-2.421.428 0 .865.072 1.299.214 3.252 1.068 4.209 4.984 3.255 8.152-.48 1.29-1.445 2.627-2.577 3.565a.181.181 0 0 0-.06.185c.017.068.073.12.143.134.302.06.606.09.903.09.436 0 .866-.065 1.278-.194a.657.657 0 0 1 .198-.029c.473 0 .983.407 1.033.723.01.058.038.235-.334.352a6.029 6.029 0 0 1-1.812.272 7.29 7.29 0 0 1-2.756-.56.191.191 0 0 0-.146.001 4.471 4.471 0 0 1-1.792.397 3.863 3.863 0 0 1-1.529-.318 4.165 4.165 0 0 1-2.01-1.808.186.186 0 0 0-.162-.093h-.006a.186.186 0 0 0-.162.104.867.867 0 0 1-.124.198 7.627 7.627 0 0 1-1.32 1.284c-.438.329-.864.495-1.264.495-.3 0-.567-.098-.82-.3a1.916 1.916 0 0 1-.584-.858.186.186 0 0 0-.176-.12.187.187 0 0 0-.158.086c-.505.802-1.116 1.192-1.87 1.192-.586 0-1.04-.202-1.388-.618a2.02 2.02 0 0 1-.203-.294.186.186 0 0 0-.162-.093.187.187 0 0 0-.124.046 5.972 5.972 0 0 1-.604.474 2.865 2.865 0 0 1-1.636.485c-.495 0-.885-.168-1.191-.515a.187.187 0 0 0-.242-.034c-.555.355-1.142.54-1.744.55a.185.185 0 0 0-.182.17c-.133 1.933-.437 3.57-.904 4.863-.45 1.245-1.076 1.85-1.914 1.85"/>
    </g>
</svg>
