<svg width="30" height="30" viewBox="0 0 30 30" xmlns="http://www.w3.org/2000/svg" xmlns:xlink="http://www.w3.org/1999/xlink"><title>FCB366CF-7FE8-4358-9E40-B7DADA030129</title><defs><path id="a" d="M0 0h30v30H0z"/></defs><g fill="none" fill-rule="evenodd"><mask id="b" fill="#fff"><use xlink:href="#a"/></mask><use fill-opacity="0" fill="#D8D8D8" xlink:href="#a"/><path d="M25.1 25.695a1.965 1.965 0 1 1 .001-3.93 1.965 1.965 0 0 1 0 3.93zm2.564-4.666c.494-1.4.765-2.907.765-4.478 0-5.262-3.025-9.815-7.428-12.024V6.37c3.482 2.064 5.828 5.85 5.828 10.182 0 1.277-.223 2.498-.6 3.65l-1.128-.652-3.621 2.09v4.181l3.62 2.091 3.622-2.09v-4.182l-1.058-.61zM14.98 2.215a1.966 1.966 0 1 1-.002 3.932 1.966 1.966 0 0 1 .002-3.932zM3.206 17.762a11.009 11.009 0 0 1-.075-1.21c0-5.271 3.461-9.743 8.228-11.277v.997L14.98 8.36l3.621-2.09V2.09L14.98 0l-3.621 2.09v1.52c-5.666 1.584-9.827 6.77-9.827 12.942 0 .706.075 1.392.183 2.067l1.491-.857zM4.9 25.695a1.966 1.966 0 1 1 0-3.93 1.966 1.966 0 0 1 0 3.93zm14.635 1.768a11.711 11.711 0 0 1-4.555.937 11.77 11.77 0 0 1-6.975-2.282l.517-.298v-4.18L4.9 19.55 1.28 21.64v4.18l3.62 2.091 1.612-.93a13.347 13.347 0 0 0 8.468 3.02c2.26 0 4.385-.57 6.254-1.558l-1.7-.98z" fill="#FFF" mask="url(#b)"/></g></svg>