<svg xmlns="http://www.w3.org/2000/svg" width="264" height="150" viewBox="0 0 264 150">
    <g fill="none" fill-rule="evenodd">
        <path stroke="#F7B500" d="M-.5-.5h265v151H-.5z"/>
        <path d="M0 0h264v150H0z"/>
        <g fill="#FFF" fill-rule="nonzero">
            <path d="M60 37.4a4.4 4.4 0 1 0 0-8.8 4.4 4.4 0 0 0 0 8.8zm0 1.6a6 6 0 1 1 0-12 6 6 0 0 1 0 12zM31 127.4a4.4 4.4 0 1 0 0-8.8 4.4 4.4 0 0 0 0 8.8zm0 1.6a6 6 0 1 1 0-12 6 6 0 0 1 0 12zM217 68.4a4.4 4.4 0 1 0 0-8.8 4.4 4.4 0 0 0 0 8.8zm0 1.6a6 6 0 1 1 0-12 6 6 0 0 1 0 12zM246.243 34.111l-3.677-3.677-1.132 1.132 3.677 3.677-3.677 3.677 1.132 1.131 3.677-3.677 3.677 3.677 1.131-1.131-3.677-3.677 3.677-3.677-1.131-1.132-3.677 3.677zM49.243 86.111l-3.677-3.677-1.132 1.132 3.677 3.677-3.677 3.677 1.132 1.131 3.677-3.677 3.677 3.677 1.131-1.131-3.677-3.677 3.677-3.677-1.131-1.132-3.677 3.677zM13.186 69.075l5.889 3.4 3.4-5.89-5.89-3.4-3.4 5.89zM16 61l8.66 5-5 8.66-8.66-5L16 61zM199.186 23.075l5.889 3.4 3.4-5.89-5.89-3.4-3.4 5.89zM202 15l8.66 5-5 8.66-8.66-5 5-8.66zM18.6 20v-5H17v5h-5v1.6h5V27h1.6v-5.4H24V20h-5.4z"/>
        </g>
        <g fill="#FFF">
            <path fill-rule="nonzero" d="M84 18v128h73v4h11.501-84.504A3.996 3.996 0 0 1 80 146.007V3.993A3.991 3.991 0 0 1 83.997 0h96.006A3.996 3.996 0 0 1 184 3.993V74h-4V18H84zm5-6a3 3 0 1 0 0-6 3 3 0 0 0 0 6zm10 0a3 3 0 1 0 0-6 3 3 0 0 0 0 6zm10 0a3 3 0 1 0 0-6 3 3 0 0 0 0 6z"/>
            <g transform="translate(100 42)">
                <circle cx="8" cy="8" r="8"/>
                <circle cx="56" cy="8" r="8"/>
                <rect width="40" height="8" x="12" y="40" rx="4"/>
            </g>
        </g>
        <path fill="#FFF" d="M239 132v-4h-4v4h-4v4h4v4h4v-4h4v-4h-4zm-41.345-15.423c-4.06 2.934-6.655 7.41-6.655 12.423 0 8.837 8.059 16 18 16s18-7.163 18-16c0-5.014-2.594-9.489-6.655-12.423 2.877-2.712 4.655-6.45 4.655-10.577 0-8.284-7.163-15-16-15s-16 6.716-16 15c0 4.127 1.778 7.865 4.655 10.577zM167 88.005A3.996 3.996 0 0 1 170.995 84h72.01c2.207 0 3.995 1.8 3.995 4.005v57.99a3.996 3.996 0 0 1-3.995 4.005H167V88.005zM175 92v52h8V92h-8zm34 21c-4.53 0-8-3.254-8-7s3.47-7 8-7c4.53 0 8 3.254 8 7s-3.47 7-8 7zm0 24c-5.719 0-10-3.805-10-8s4.281-8 10-8 10 3.805 10 8-4.281 8-10 8z"/>
    </g>
</svg>
