<svg xmlns="http://www.w3.org/2000/svg" width="264" height="150" viewBox="0 0 264 150">
    <g fill="none" fill-rule="evenodd">
        <path d="M0 0h264v150H0z"/>
        <g fill="#FF3244" fill-rule="nonzero">
            <path d="M60 37.4a4.4 4.4 0 1 0 0-8.8 4.4 4.4 0 0 0 0 8.8zm0 1.6a6 6 0 1 1 0-12 6 6 0 0 1 0 12zM31 127.4a4.4 4.4 0 1 0 0-8.8 4.4 4.4 0 0 0 0 8.8zm0 1.6a6 6 0 1 1 0-12 6 6 0 0 1 0 12zM217 68.4a4.4 4.4 0 1 0 0-8.8 4.4 4.4 0 0 0 0 8.8zm0 1.6a6 6 0 1 1 0-12 6 6 0 0 1 0 12zM246.243 34.111l-3.677-3.677-1.132 1.132 3.677 3.677-3.677 3.677 1.132 1.131 3.677-3.677 3.677 3.677 1.131-1.131-3.677-3.677 3.677-3.677-1.131-1.132-3.677 3.677zM49.243 86.111l-3.677-3.677-1.132 1.132 3.677 3.677-3.677 3.677 1.132 1.131 3.677-3.677 3.677 3.677 1.131-1.131-3.677-3.677 3.677-3.677-1.131-1.132-3.677 3.677zM13.186 69.075l5.889 3.4 3.4-5.89-5.89-3.4-3.4 5.89zM16 61l8.66 5-5 8.66-8.66-5L16 61zM199.186 23.075l5.889 3.4 3.4-5.89-5.89-3.4-3.4 5.89zM202 15l8.66 5-5 8.66-8.66-5 5-8.66zM18.6 20v-5H17v5h-5v1.6h5V27h1.6v-5.4H24V20h-5.4z"/>
        </g>
        <g fill="#FF3244">
            <path fill-rule="nonzero" d="M84 18v128h73v4h11.501-84.504A3.996 3.996 0 0 1 80 146.007V3.993A3.991 3.991 0 0 1 83.997 0h96.006A3.996 3.996 0 0 1 184 3.993V98h-4V18H84zm5-6a3 3 0 1 0 0-6 3 3 0 0 0 0 6zm10 0a3 3 0 1 0 0-6 3 3 0 0 0 0 6zm10 0a3 3 0 1 0 0-6 3 3 0 0 0 0 6z"/>
            <g transform="translate(100 42)">
                <circle cx="8" cy="8" r="8"/>
                <circle cx="56" cy="8" r="8"/>
                <path d="M53.554 50.016c-1.01 0-2.01-.44-2.69-1.288C45.77 42.389 39.07 38.897 32 38.897c-7.071 0-13.77 3.492-18.863 9.831a3.45 3.45 0 0 1-5.377-4.32C14.19 36.408 22.798 32 32 32c9.202 0 17.81 4.408 24.24 12.408a3.449 3.449 0 0 1-2.686 5.608"/>
            </g>
        </g>
        <path fill="#FF3244" d="M187.981 125.381l-9-9-3.6 3.6 9 9-9 9 3.6 3.6 9-9 9 9 3.6-3.6-9-9 9-9-3.6-3.6-9 9zM167 112.008a4.006 4.006 0 0 1 4.008-4.008h33.984a4.006 4.006 0 0 1 4.008 4.008v33.984a4.006 4.006 0 0 1-4.008 4.008H167v-37.992z"/>
    </g>
</svg>
