<svg width="44" height="44" viewBox="0 0 44 44" xmlns="http://www.w3.org/2000/svg"><title>4FF5DE17-D4A2-4965-9E1D-0EE033CBA689</title><g fill="none" fill-rule="evenodd"><rect fill="#FF8140" width="44" height="44" rx="3"/><g fill="#FFF"><path fill="none" d="M12 12h20v20H12z"/><path d="M20.235 28.97c-3.245.32-6.047-1.146-6.257-3.277-.211-2.13 2.25-4.116 5.494-4.437 3.245-.322 6.047 1.145 6.257 3.275.21 2.13-2.249 4.118-5.494 4.439m6.49-7.072c-.276-.083-.465-.14-.32-.502.313-.788.344-1.466.006-1.951-.637-.909-2.378-.86-4.374-.025 0-.001-.626.275-.466-.223.307-.987.26-1.813-.217-2.29-1.082-1.084-3.962.04-6.431 2.509C13.073 21.265 12 23.226 12 24.92c0 3.241 4.157 5.212 8.224 5.212 5.33 0 8.877-3.097 8.877-5.556 0-1.486-1.25-2.33-2.375-2.678M30.266 15.965a5.185 5.185 0 0 1 1.085 5.076v.003a.75.75 0 0 1-.944.482.75.75 0 0 1-.484-.945 3.69 3.69 0 0 0-4.283-4.746.75.75 0 1 1-.314-1.468 5.19 5.19 0 0 1 4.94 1.598zm-4.384 1.007a2.528 2.528 0 0 1 2.934 3.25.648.648 0 0 1-.814.417.648.648 0 0 1-.415-.814h-.001a1.233 1.233 0 0 0-1.434-1.589v-.001a.645.645 0 1 1-.27-1.263z"/><path d="M20.414 25.112c-.114.194-.364.287-.561.207-.193-.08-.254-.297-.144-.488.113-.19.355-.283.547-.206.196.072.266.292.158.487m-1.034 1.327c-.314.501-.986.72-1.492.49-.499-.228-.646-.81-.332-1.298.31-.486.959-.703 1.461-.493.508.218.672.795.363 1.301m1.18-3.544c-1.544-.402-3.29.368-3.96 1.729-.684 1.388-.023 2.928 1.537 3.431 1.616.521 3.52-.278 4.182-1.775.654-1.464-.162-2.972-1.76-3.385"/></g></g></svg>