<svg width="44" height="44" viewBox="0 0 44 44" xmlns="http://www.w3.org/2000/svg"><title>A51FD78B-4AD4-4342-9DFD-6453403F3A60</title><g fill="none" fill-rule="evenodd"><rect fill="#2DC100" width="44" height="44" rx="3"/><g fill="#FFF"><path fill="none" d="M12 12h20v20H12z"/><path d="M21.817 18.163c-.438.008-.808.381-.8.807a.8.8 0 0 0 .821.781.785.785 0 0 0 .79-.805.79.79 0 0 0-.81-.783m-4.264.82c.016-.425-.352-.807-.788-.82a.795.795 0 0 0-.828.769.786.786 0 0 0 .779.815c.446.012.82-.33.837-.765m8.172.723c-1.776.092-3.32.63-4.574 1.847-1.266 1.228-1.844 2.734-1.686 4.6-.694-.086-1.326-.18-1.962-.234-.22-.018-.48.008-.666.113-.618.348-1.21.741-1.91 1.18.128-.582.211-1.092.359-1.582.108-.36.058-.561-.274-.796-2.132-1.505-3.03-3.757-2.358-6.076.622-2.145 2.15-3.445 4.226-4.124 2.833-.925 6.017.019 7.74 2.268a5.302 5.302 0 0 1 1.105 2.804"/><path d="M27.44 23.256a.662.662 0 0 0-.656.633.651.651 0 0 0 .648.684c.36.001.643-.27.656-.628a.657.657 0 0 0-.648-.689m-4.125 1.322c.358 0 .652-.28.666-.634a.666.666 0 0 0-.662-.69.673.673 0 0 0-.669.686.667.667 0 0 0 .665.638m6.4 6.196c-.563-.25-1.078-.626-1.627-.683-.547-.057-1.122.258-1.695.317-1.743.178-3.305-.308-4.592-1.499-2.45-2.265-2.1-5.738.734-7.595 2.518-1.65 6.212-1.1 7.987 1.19 1.55 1.997 1.368 4.65-.524 6.327-.547.486-.744.886-.393 1.526.065.118.072.268.11.417"/></g></g></svg>